<svg viewBox="0 0 32 32" xmlns="http://www.w3.org/2000/svg">

  <!-- PHP letters — counters (inner zones) punched out with fill-rule="evenodd" -->

  <!-- First P: outer shape + counter as two subpaths → counter becomes a transparent hole -->
  <path fill="#444444" fill-rule="evenodd"
    d="M10.372 13.069h-3.967l-1.715 8.684h2.037l0.429-2.251h1.93c1.822 0.107 3.86-1.394 3.86-3.967 0-1.501-0.858-2.359-2.573-2.466z
       M8.871 17.894h-1.287l0.536-3.216h1.394c0.75 0 1.287 0.322 1.287 0.965-0.107 1.823-0.965 2.144-1.93 2.251z"/>

  <!-- H (no enclosed counter) -->
  <path fill="#444444"
    d="M17.555 13.069h-1.93l0.429-2.251h-2.037l-1.715 8.684h2.037l0.965-4.824h1.608c0.751 0 0.751 0.322 0.643 0.858l-0.75 3.967h2.144l0.75-4.396c0.214-1.072-0.429-1.93-2.144-2.037z"/>

  <!-- Second P: same evenodd treatment -->
  <path fill="#444444" fill-rule="evenodd"
    d="M24.738 13.069h-3.967l-1.715 8.684h2.037l0.429-2.251h1.93c1.823 0.107 3.86-1.394 3.86-3.967 0-1.501-0.858-2.359-2.573-2.466z
       M23.237 17.894h-1.287l0.536-3.216h1.394c0.751 0 1.287 0.322 1.287 0.965-0.107 1.823-0.965 2.144-1.93 2.251z"/>

  <!-- Magnifier — lens made transparent: outer shape + inner circle combined with evenodd -->
  <g transform="translate(16, 16) scale(0.45)" fill="#000000">
    <path fill-rule="evenodd"
      d="M29.156 29.961l-0.709 0.709c-0.785 0.784-2.055 0.784-2.838 0l-5.676-5.674c-0.656-0.658-0.729-1.644-0.281-2.412l-3.104-3.102c-1.669 1.238-3.728 1.979-5.965 1.979-5.54 0-10.031-4.491-10.031-10.031s4.491-10.032 10.031-10.032c5.541 0 10.031 4.491 10.031 10.032 0 2.579-0.98 4.923-2.58 6.7l3.035 3.035c0.768-0.447 1.754-0.375 2.41 0.283l5.676 5.674c0.784 0.785 0.784 2.056 0.001 2.839z
         M18.088 11.389c0-4.155-3.369-7.523-7.524-7.523s-7.524 3.367-7.524 7.523 3.368 7.523 7.523 7.523 7.525-3.368 7.525-7.523z"/>
  </g>

</svg>
